<?xml version="1.0" encoding="utf-8"?>
<!-- Generator: Adobe Illustrator 17.0.0, SVG Export Plug-In . SVG Version: 6.00 Build 0)  -->
<!DOCTYPE svg PUBLIC "-//W3C//DTD SVG 1.1//EN" "http://www.w3.org/Graphics/SVG/1.1/DTD/svg11.dtd">
<svg version="1.1" id="Layer_1" xmlns="http://www.w3.org/2000/svg" xmlns:xlink="http://www.w3.org/1999/xlink" x="0px" y="0px"
	 width="600px" height="600px" viewBox="0 0 600 600" enable-background="new 0 0 600 600" xml:space="preserve">
<circle fill="#A5554A" stroke="#B9C0B5" stroke-width="11.6831" stroke-miterlimit="10" cx="300.559" cy="301.441" r="278.712"/>
<circle fill="#576072" stroke="#B9C0B5" stroke-width="11.7248" stroke-miterlimit="10" cx="299.784" cy="301.302" r="166.929"/>
<g>
	<path fill="#B9C0B5" d="M82.017,235.625l26.381,17.574l-0.144,0.57l-31.72,3.6l28.337,7.145l-2.062,8.178l-45.517-11.477
		l2.589-10.27l27.406-2.799l-22.867-15.206l2.478-9.825l45.517,11.476l-2.062,8.179L82.017,235.625z"/>
	<path fill="#B9C0B5" d="M81.71,189.983l48.277,8.057l-3.974,8.174l-8.965-1.596l-6.718,13.817l6.822,6.007l-3.973,8.172
		l-36.158-32.988L81.71,189.983z M103.836,212.806l4.745-9.761l-19.512-3.378L103.836,212.806z"/>
	<path fill="#B9C0B5" d="M126.154,173.502l-3.936,5.302l14.332,10.639l-5.026,6.772L93.83,168.236l10.443-14.068
		c1.272-1.714,2.698-3.087,4.275-4.114c1.577-1.027,3.234-1.67,4.972-1.927c1.738-0.258,3.534-0.117,5.39,0.417
		c1.854,0.537,3.693,1.48,5.512,2.83c5.32,3.949,7.306,8.843,5.957,14.681l20.471,4.122l-5.416,7.297L126.154,173.502z
		 M105.524,166.415l9.974,7.402l5.3-7.139c2.441-3.289,2.087-6.104-1.062-8.442c-3.5-2.597-6.472-2.251-8.913,1.039L105.524,166.415
		z"/>
	<path fill="#B9C0B5" d="M150.854,124.22c-2.08-0.403-3.884-0.408-5.413-0.016c-1.531,0.394-2.939,1.177-4.227,2.352
		c-2.415,2.203-3.409,4.897-2.984,8.077c0.426,3.184,2.195,6.48,5.31,9.893c1.469,1.61,3.006,2.906,4.612,3.89
		c1.605,0.983,3.211,1.644,4.815,1.979s3.131,0.343,4.58,0.023c1.449-0.318,2.753-1.007,3.913-2.065
		c1.094-0.999,1.942-2.332,2.543-4.002c0.602-1.669,0.907-3.306,0.918-4.911l8.385-1.19c1.04,6.96-0.888,12.67-5.782,17.136
		c-2.093,1.91-4.412,3.2-6.956,3.87c-2.545,0.671-5.173,0.782-7.883,0.335c-2.71-0.448-5.403-1.442-8.078-2.985
		c-2.676-1.541-5.188-3.599-7.539-6.175c-2.292-2.511-4.099-5.155-5.422-7.93c-1.324-2.775-2.101-5.518-2.332-8.229
		c-0.231-2.71,0.112-5.309,1.028-7.796c0.916-2.488,2.468-4.731,4.657-6.729c5.376-4.906,11.471-6.278,18.283-4.116L150.854,124.22z
		"/>
	<path fill="#B9C0B5" d="M193.148,111.679l-13.398,8.291l10.492,16.958l-7.172,4.437l-24.699-39.918l7.171-4.438l9.839,15.9
		l13.398-8.29l-9.838-15.901l7.116-4.403l24.699,39.919l-7.117,4.403L193.148,111.679z"/>
	<path fill="#B9C0B5" d="M241.109,72.718l10.273,37.249l-8.698,2.397l-10.272-37.248l-11.533,3.181l-2.208-8.004l31.639-8.726
		l2.208,8.004L241.109,72.718z"/>
	<path fill="#B9C0B5" d="M261.541,59.762l25.754-2.65l0.85,8.259l-17.363,1.788l1.064,10.34l10.795-1.111l0.85,8.259l-10.795,1.112
		l1.191,11.576l17.364-1.787l0.851,8.259l-25.754,2.651L261.541,59.762z"/>
	<path fill="#B9C0B5" d="M308.465,73.155l-2.347,30.9l-8.345-0.633l3.555-46.807l9.648,0.732l12.816,30.676l2.242-29.532
		l8.345,0.635l-3.555,46.807l-8.997-0.684L308.465,73.155z"/>
	<path fill="#B9C0B5" d="M352.834,79.304l-8.29,29.86l-8.063-2.238l12.558-45.231l9.323,2.588l6.629,32.578l7.923-28.539
		l8.063,2.239l-12.558,45.231l-8.693-2.414L352.834,79.304z"/>
	<path fill="#B9C0B5" d="M393.001,75.71l7.74,3.35l-18.643,43.081l-7.74-3.35L393.001,75.71z"/>
	<path fill="#B9C0B5" d="M399.295,131.869c-2.064-1.219-4.009-2.812-5.834-4.775c-1.828-1.966-3.219-4.065-4.176-6.302l6.972-5.373
		c0.767,1.87,1.768,3.626,3.001,5.267c1.233,1.64,2.751,2.992,4.552,4.055c2.026,1.197,3.779,1.639,5.257,1.322
		c1.478-0.317,2.683-1.264,3.613-2.84c0.399-0.675,0.598-1.355,0.598-2.039c-0.002-0.684-0.132-1.406-0.391-2.167
		c-0.26-0.761-0.641-1.593-1.144-2.499c-0.504-0.904-1.051-1.885-1.641-2.943c-0.749-1.301-1.614-2.686-2.596-4.153
		c-0.983-1.466-1.787-3.017-2.415-4.653s-0.957-3.35-0.988-5.14c-0.031-1.791,0.541-3.679,1.717-5.668
		c1.02-1.726,2.264-3.041,3.734-3.945c1.47-0.902,3.062-1.456,4.776-1.658s3.474-0.074,5.278,0.385
		c1.805,0.457,3.532,1.174,5.184,2.151c2.139,1.263,3.998,2.678,5.579,4.245c1.581,1.567,2.789,3.356,3.624,5.368l-6.472,6.2
		c-0.671-1.864-1.557-3.45-2.655-4.759c-1.102-1.308-2.607-2.527-4.521-3.658c-1.689-0.998-3.187-1.527-4.49-1.589
		c-1.306-0.062-2.213,0.337-2.722,1.201c-0.711,1.201-0.709,2.568,0.005,4.103c0.713,1.536,1.807,3.498,3.28,5.887
		c1.157,1.898,2.167,3.723,3.031,5.474c0.864,1.75,1.492,3.452,1.886,5.1c0.392,1.649,0.498,3.269,0.318,4.858
		c-0.18,1.59-0.735,3.173-1.666,4.749c-2.417,4.09-5.42,6.366-9.008,6.828C407.394,135.362,403.497,134.352,399.295,131.869z"/>
	<path fill="#B9C0B5" d="M474.715,150.359c0.367-2.086,0.341-3.89-0.078-5.414c-0.419-1.522-1.227-2.918-2.424-4.185
		c-2.245-2.377-4.955-3.324-8.128-2.845c-3.175,0.481-6.44,2.307-9.799,5.479c-1.585,1.497-2.854,3.056-3.811,4.678
		c-0.956,1.622-1.588,3.239-1.896,4.849c-0.309,1.609-0.29,3.137,0.055,4.581c0.344,1.442,1.055,2.735,2.133,3.875
		c1.017,1.077,2.365,1.902,4.045,2.475c1.68,0.573,3.321,0.85,4.925,0.833l1.335,8.364c-6.94,1.158-12.685-0.67-17.233-5.486
		c-1.946-2.06-3.274-4.358-3.989-6.889c-0.715-2.534-0.87-5.159-0.469-7.876c0.4-2.718,1.349-5.427,2.844-8.128
		c1.495-2.702,3.51-5.249,6.045-7.644c2.473-2.334,5.084-4.187,7.836-5.558c2.752-1.372,5.481-2.196,8.188-2.473
		c2.705-0.277,5.311,0.021,7.812,0.893c2.504,0.875,4.772,2.386,6.809,4.542c4.998,5.291,6.475,11.36,4.43,18.208L474.715,150.359z"
		/>
	<path fill="#B9C0B5" d="M497.473,157.471l4.621,7.056l-32.319,21.175l10.318,15.749l-6.944,4.551l-14.941-22.805L497.473,157.471z"
		/>
	<path fill="#B9C0B5" d="M480.66,224.03c-1.04-2.399-1.591-4.713-1.655-6.941c-0.064-2.229,0.316-4.283,1.142-6.161
		c0.824-1.877,2.08-3.585,3.764-5.123c1.686-1.539,3.747-2.836,6.188-3.893l27.652-11.989l3.328,7.679l-27.412,11.884
		c-3.159,1.37-5.112,2.975-5.857,4.819c-0.744,1.843-0.588,3.983,0.471,6.424c0.987,2.279,2.387,3.727,4.198,4.343
		c1.811,0.616,4.296,0.241,7.455-1.13l27.413-11.884l3.354,7.738l-27.413,11.883c-2.479,1.077-4.868,1.73-7.164,1.966
		c-2.297,0.236-4.418,0.027-6.363-0.625c-1.946-0.653-3.694-1.725-5.242-3.214C482.969,228.313,481.684,226.391,480.66,224.03z"/>
	<path fill="#B9C0B5" d="M538.42,248.411c0.378,1.658,0.461,3.304,0.253,4.938c-0.21,1.633-0.706,3.133-1.49,4.497
		c-0.786,1.362-1.889,2.552-3.311,3.569c-1.423,1.017-3.153,1.758-5.194,2.222c-1.784,0.407-3.399,0.483-4.842,0.231
		c-1.443-0.252-2.77-0.777-3.979-1.574c-0.146,0.926-0.438,1.854-0.875,2.78c-0.438,0.927-1.034,1.789-1.791,2.588
		c-0.757,0.798-1.7,1.516-2.829,2.153c-1.129,0.635-2.458,1.129-3.988,1.479c-4.504,1.025-8.29,0.501-11.354-1.572
		c-3.065-2.074-5.168-5.618-6.311-10.632l-3.483-15.299l45.77-10.424L538.42,248.411z M510.539,247.586l-11.347,2.584l1.901,8.351
		c0.35,1.529,1.146,2.677,2.395,3.445c1.247,0.765,2.784,0.94,4.612,0.524c1.784-0.407,3.044-1.208,3.778-2.403
		c0.732-1.195,0.935-2.515,0.606-3.959L510.539,247.586z M528.771,243.434l-10.136,2.309l1.598,7.012
		c0.261,1.148,1.004,2.007,2.229,2.577c1.224,0.57,2.517,0.701,3.878,0.391c1.359-0.309,2.436-0.979,3.229-2.009
		c0.793-1.03,1.06-2.119,0.798-3.267L528.771,243.434z"/>
</g>
<g>
	<path fill="#B9C0B5" d="M142.857,427.556l15.009,16.788l-5.349,4.783l-10.121-11.32l-6.697,5.989l6.29,7.038l-5.349,4.782
		l-6.292-7.038l-7.498,6.704l10.12,11.319l-5.35,4.783l-15.009-16.789L142.857,427.556z"/>
	<path fill="#B9C0B5" d="M147.054,489.494c-1.621-1.312-3.092-2.93-4.415-4.85c-1.324-1.921-2.256-3.9-2.798-5.94l6.656-3.698
		c0.425,1.703,1.066,3.337,1.92,4.902c0.855,1.564,1.989,2.92,3.403,4.066c1.591,1.289,3.04,1.894,4.349,1.814
		c1.307-0.079,2.46-0.733,3.456-1.963c0.427-0.527,0.683-1.083,0.767-1.67c0.084-0.586,0.062-1.221-0.065-1.906
		c-0.128-0.686-0.352-1.449-0.67-2.289c-0.319-0.841-0.667-1.752-1.042-2.734c-0.479-1.213-1.051-2.513-1.709-3.896
		c-0.662-1.384-1.159-2.817-1.492-4.3c-0.336-1.484-0.405-2.994-0.208-4.533c0.196-1.537,0.923-3.08,2.181-4.633
		c1.091-1.346,2.322-2.311,3.698-2.893c1.375-0.583,2.811-0.85,4.308-0.801c1.498,0.05,2.992,0.389,4.484,1.016
		c1.493,0.627,2.886,1.466,4.183,2.518c1.679,1.359,3.099,2.813,4.261,4.361c1.161,1.547,1.976,3.236,2.442,5.069l-6.331,4.471
		c-0.344-1.685-0.906-3.158-1.686-4.422c-0.783-1.263-1.924-2.504-3.426-3.722c-1.326-1.074-2.545-1.723-3.657-1.945
		c-1.113-0.223-1.942,0.003-2.487,0.676c-0.759,0.938-0.929,2.108-0.507,3.516c0.42,1.408,1.115,3.231,2.083,5.47
		c0.756,1.776,1.396,3.472,1.919,5.083c0.523,1.612,0.851,3.15,0.982,4.614c0.132,1.464,0.021,2.865-0.332,4.203
		c-0.353,1.339-1.027,2.622-2.022,3.853c-2.585,3.189-5.448,4.749-8.586,4.678C153.571,493.539,150.353,492.167,147.054,489.494z"/>
	<path fill="#B9C0B5" d="M200.6,484.736l-16.507,29.028l-6.822-3.879l16.506-29.03l-9.046-5.143l3.547-6.238l24.816,14.11
		l-3.547,6.237L200.6,484.736z"/>
	<path fill="#B9C0B5" d="M398.831,489.154l-3.151,1.704l-3.145-5.815c2.291-1.581,3.119-3.357,2.485-5.327l5.353-2.894l19.3,35.686
		l-6.353,3.436L398.831,489.154z"/>
	<path fill="#B9C0B5" d="M413.029,468.236c1.604-1.08,3.242-1.718,4.916-1.914c1.673-0.196,3.33,0.006,4.967,0.605
		c1.639,0.6,3.241,1.588,4.807,2.962c1.566,1.376,3.043,3.095,4.433,5.156c1.831,2.718,3.212,5.568,4.146,8.55
		c0.934,2.981,1.389,5.877,1.361,8.689c-0.026,2.811-0.55,5.41-1.568,7.8s-2.582,4.362-4.688,5.917l-4.527-5.194
		c1.812-1.448,3.076-3.39,3.791-5.823s0.65-5.093-0.195-7.976c-0.333,0.997-0.822,1.95-1.467,2.86
		c-0.644,0.911-1.374,1.642-2.19,2.192c-1.354,0.911-2.773,1.481-4.264,1.713c-1.489,0.231-2.961,0.132-4.416-0.296
		c-1.454-0.428-2.862-1.16-4.222-2.197c-1.361-1.035-2.589-2.367-3.683-3.992c-2.673-3.968-3.708-7.574-3.105-10.818
		C407.729,473.227,409.696,470.48,413.029,468.236z M423.827,485.693c1.415-0.953,2.216-2.174,2.402-3.662
		c0.187-1.487-0.32-3.121-1.52-4.902s-2.5-2.881-3.902-3.299c-1.402-0.419-2.778-0.172-4.131,0.737
		c-1.415,0.953-2.226,2.158-2.434,3.615c-0.207,1.458,0.288,3.075,1.488,4.856c1.199,1.78,2.519,2.892,3.958,3.33
		C421.126,486.809,422.507,486.582,423.827,485.693z"/>
	<path fill="#B9C0B5" d="M454.493,488.652c-2.039-2.617-3.908-5.288-5.606-8.006c-1.698-2.719-3.162-5.442-4.391-8.172
		c-1.229-2.729-2.206-5.428-2.929-8.099c-0.724-2.669-1.119-5.251-1.187-7.747l-11.94,10.447l-4.726-5.4l18.834-16.475l5.096,5.826
		c-0.316,2.229-0.229,4.718,0.262,7.467c0.49,2.75,1.299,5.559,2.423,8.428c1.125,2.87,2.545,5.73,4.262,8.584
		c1.715,2.854,3.638,5.526,5.767,8.018L454.493,488.652z"/>
	<path fill="#B9C0B5" d="M481.768,462.827c-1.522,1.74-3.114,3.144-4.773,4.211c-1.659,1.068-3.556,1.876-5.69,2.428l-2.834-7.315
		c1.924-0.482,3.487-1.054,4.691-1.715c1.203-0.659,2.19-1.432,2.965-2.316c0.623-0.713,1.124-1.484,1.499-2.315
		c0.377-0.829,0.558-1.666,0.544-2.509c-0.013-0.843-0.215-1.687-0.603-2.529c-0.389-0.844-1.021-1.65-1.9-2.418
		c-0.879-0.77-1.751-1.316-2.615-1.646c-0.864-0.327-1.684-0.478-2.458-0.45c-0.776,0.028-1.493,0.218-2.153,0.572
		c-0.66,0.355-1.228,0.804-1.701,1.345c-1.049,1.199-1.652,2.232-1.812,3.1c-0.158,0.869-0.065,1.908,0.279,3.115l-6.662,3.239
		l-14.022-14.609l13.967-15.964l5.4,4.724l-9.81,11.215l4.856,5.004c0.153-0.975,0.452-1.846,0.898-2.614
		c0.446-0.768,0.97-1.494,1.569-2.18c2.645-3.023,5.579-4.575,8.801-4.653c3.221-0.078,6.42,1.271,9.595,4.05
		c3.657,3.199,5.648,6.516,5.975,9.947C486.097,455.975,484.762,459.402,481.768,462.827z"/>
</g>
<g>
	<polygon fill="#B9C0B5" points="188.323,225.885 282.121,315.189 281.144,317.143 187.078,226.854 	"/>
</g>
<g>
	<polygon fill="#B9C0B5" points="201.549,219.828 290.719,303.586 289.79,305.418 200.366,220.736 	"/>
</g>
<polygon fill="#B9C0B5" points="178.747,235.461 272.546,324.764 271.569,326.719 177.502,236.429 "/>
<polygon fill="#B9C0B5" points="164.786,256.761 252.027,339.945 251.119,341.765 163.628,257.663 "/>
<g>
	<polygon fill="#B9C0B5" points="216.218,218.46 291.648,289.023 290.862,290.567 215.217,219.225 	"/>
</g>
<g>
	<polygon fill="#B9C0B5" points="163.066,271.612 238.496,342.175 237.71,343.719 162.065,272.377 	"/>
</g>
<g>
	<g>
		<g>
			<path fill="#B9C0B5" d="M314.189,357.689c0,0-22.172-18.806-21.497-47.007c0,0,0-34.933-8.078-44.991
				c0,0,9.062,41.213-8.221,60.088c-17.295,18.84-60.282,11.095-60.282,11.095s16.121,9.412,49.709,6.71
				c0,0,26.867,8.061,38.952,22.172L314.189,357.689z"/>
			<path fill="#B9C0B5" d="M315.059,356.658L315.059,356.658c-0.218-0.177-21.668-18.749-21.016-45.947
				c0-1.477-0.097-35.551-8.375-45.862l-2.37,1.134c0.092,0.406,8.707,40.755-7.895,58.886
				c-16.596,18.079-58.616,10.757-59.046,10.683l-0.916,2.49c0.676,0.395,16.877,9.595,50.493,6.893l-0.498-0.057
				c0.263,0.086,26.626,8.124,38.311,21.754l0.882,1.025l1.019-0.87l9.417-8.061l1.202-1.036L315.059,356.658z M305.802,364.874
				c-12.2-14.238-38.477-22.252-39.593-22.579l-0.24-0.08l-0.252,0.023c-32.677,2.622-48.758-6.44-48.919-6.532l-0.91,2.496
				c1.78,0.326,43.915,7.654,61.513-11.513c17.552-19.167,8.919-59.578,8.541-61.296l-2.37,1.134
				c7.683,9.583,7.774,43.806,7.774,44.15c-0.681,28.481,21.044,47.253,21.966,48.037l-0.006-2.055l-9.412,8.066L305.802,364.874z"
				/>
		</g>
		<g>
			<path fill="#B9C0B5" d="M349.62,414.41c4.494,4.654,10.934,5.696,14.421,2.353l0,0c3.458-3.378,2.633-9.858-1.883-14.507
				l-33.708-34.784c-4.488-4.643-10.952-5.696-14.415-2.341l0,0c-3.475,3.36-2.611,9.847,1.878,14.495L349.62,414.41z"/>
			<path fill="#B9C0B5" d="M348.646,415.349c4.992,5.17,12.314,6.24,16.327,2.393c3.99-3.904,3.16-11.266-1.849-16.425
				l-33.702-34.778c-2.845-2.948-6.498-4.666-10.024-4.717c-2.507-0.046-4.683,0.767-6.303,2.341
				c-3.99,3.859-3.16,11.215,1.843,16.402L348.646,415.349z M316.879,378.693c-3.967-4.128-4.826-9.767-1.906-12.589
				c1.088-1.071,2.611-1.603,4.385-1.58c2.765,0.04,5.811,1.5,8.124,3.893l33.702,34.784c3.979,4.105,4.837,9.755,1.912,12.606
				c-2.931,2.817-8.547,1.775-12.503-2.33L316.879,378.693z"/>
		</g>
		<g>
			<path fill="#B9C0B5" d="M259.717,244.921c8.776,8.181,15.497,18.027,19.424,28.498c6.996,18.537,4.626,36.627-6.337,48.403
				c-7.116,7.637-17.094,11.902-28.859,12.32c-16.768,0.595-34.549-6.664-48.764-19.911c-25.006-23.277-30.88-57.769-13.087-76.89
				c7.116-7.637,17.089-11.902,28.842-12.326C227.709,224.426,245.491,231.674,259.717,244.921z M174.188,229.985
				c-21.852,23.478-15.738,64.822,13.631,92.152c16.299,15.188,36.896,23.495,56.515,22.79c14.472-0.509,27.393-6.103,36.381-15.755
				c13.825-14.844,17.014-37.108,8.541-59.561c-4.511-12.016-12.182-23.294-22.178-32.591
				c-16.304-15.188-36.908-23.495-56.527-22.796C196.08,214.74,183.165,220.339,174.188,229.985z"/>
		</g>
	</g>
	<g>
		<polygon fill="#B9C0B5" points="172.494,246.599 266.293,335.903 265.315,337.857 171.249,247.567 		"/>
	</g>
	<g>
		<polygon fill="#B9C0B5" points="165.069,279.038 227.21,217.287 228.187,218.655 166.046,280.796 		"/>
	</g>
	<g>
		<polygon fill="#B9C0B5" points="176.403,289.59 238.544,227.84 239.521,229.207 177.38,291.349 		"/>
	</g>
	<g>
		<polygon fill="#B9C0B5" points="183.242,302.9 253.271,235.07 254.372,236.572 184.343,304.832 		"/>
	</g>
	<g>
		<polygon fill="#B9C0B5" points="194.576,314.034 263.258,246.013 264.338,247.52 195.656,315.971 		"/>
	</g>
	<g>
		<polygon fill="#B9C0B5" points="204.933,323.017 274,254.807 275.086,256.318 206.019,324.96 		"/>
	</g>
	<g>
		<polygon fill="#B9C0B5" points="219.003,331.604 281.144,269.853 282.121,271.221 219.98,333.363 		"/>
	</g>
	<g>
		<polygon fill="#B9C0B5" points="229.75,340.658 289.968,281.187 290.915,282.505 230.697,342.352 		"/>
	</g>
</g>
<g>
	<polygon fill="#B9C0B5" points="188.323,225.885 282.121,315.189 281.144,317.143 187.078,226.854 	"/>
</g>
<g>
	<polygon fill="#B9C0B5" points="201.549,219.828 290.719,303.586 289.79,305.418 200.366,220.736 	"/>
</g>
<polygon fill="#B9C0B5" points="178.747,235.461 272.546,324.764 271.569,326.719 177.502,236.429 "/>
<polygon fill="#B9C0B5" points="164.786,256.761 252.027,339.945 251.119,341.765 163.628,257.663 "/>
<g>
	<polygon fill="#B9C0B5" points="216.218,218.46 291.648,289.023 290.862,290.567 215.217,219.225 	"/>
</g>
<g>
	<polygon fill="#B9C0B5" points="163.066,271.612 238.496,342.175 237.71,343.719 162.065,272.377 	"/>
</g>
<g>
	<g>
		<g>
			<g>
				<path fill="#B9C0B5" d="M284.446,357.689c0,0,22.172-18.806,21.497-47.007c0,0,0-34.933,8.078-44.991
					c0,0-9.062,41.213,8.221,60.088c17.295,18.84,60.282,11.095,60.282,11.095s-16.121,9.412-49.709,6.71
					c0,0-26.867,8.061-38.952,22.172L284.446,357.689z"/>
				<path fill="#B9C0B5" d="M282.368,357.689l1.202,1.036l9.417,8.061l1.019,0.87l0.882-1.025
					c11.684-13.631,38.047-21.668,38.311-21.754l-0.498,0.057c33.616,2.702,49.817-6.498,50.493-6.893l-0.916-2.49
					c-0.429,0.074-42.45,7.396-59.046-10.683c-16.602-18.13-7.986-58.479-7.895-58.886l-2.37-1.134
					c-8.278,10.31-8.375,44.385-8.375,45.862c0.653,27.199-20.798,45.77-21.016,45.947l0,0L282.368,357.689z M294.739,364.725
					l-9.412-8.066l-0.006,2.055c0.922-0.784,22.647-19.556,21.966-48.037c0-0.344,0.092-34.566,7.774-44.15l-2.37-1.134
					c-0.378,1.717-9.011,42.129,8.541,61.296c17.598,19.167,59.733,11.839,61.513,11.513l-0.91-2.496
					c-0.16,0.092-16.241,9.154-48.919,6.532l-0.252-0.023l-0.24,0.08c-1.116,0.326-27.393,8.341-39.593,22.579L294.739,364.725z"/>
			</g>
			<g>
				<path fill="#B9C0B5" d="M249.015,414.41c-4.494,4.654-10.934,5.696-14.421,2.353l0,0c-3.458-3.378-2.633-9.858,1.883-14.507
					l33.708-34.784c4.488-4.643,10.952-5.696,14.415-2.341l0,0c3.475,3.36,2.611,9.847-1.878,14.495L249.015,414.41z"/>
				<path fill="#B9C0B5" d="M283.696,380.565c5.004-5.187,5.834-12.543,1.843-16.402c-1.62-1.574-3.796-2.387-6.303-2.341
					c-3.526,0.052-7.179,1.769-10.024,4.717l-33.702,34.778c-5.009,5.158-5.839,12.52-1.849,16.425
					c4.013,3.847,11.335,2.777,16.327-2.393L283.696,380.565z M248.042,413.477c-3.956,4.105-9.572,5.147-12.503,2.33
					c-2.925-2.851-2.067-8.501,1.912-12.606l33.702-34.784c2.313-2.393,5.358-3.853,8.124-3.893c1.775-0.023,3.297,0.51,4.385,1.58
					c2.92,2.822,2.061,8.461-1.906,12.589L248.042,413.477z"/>
			</g>
			<g>
				<path fill="#B9C0B5" d="M387.699,225.016c11.753,0.424,21.726,4.689,28.842,12.326c17.793,19.121,11.919,53.613-13.087,76.89
					c-14.215,13.247-31.996,20.506-48.764,19.911c-11.765-0.418-21.743-4.683-28.859-12.32
					c-10.963-11.776-13.333-29.866-6.337-48.403c3.927-10.471,10.648-20.317,19.424-28.498
					C353.144,231.674,370.925,224.426,387.699,225.016z M388.082,214.225c-19.619-0.698-40.223,7.608-56.527,22.796
					c-9.996,9.297-17.667,20.575-22.178,32.591c-8.473,22.453-5.284,44.717,8.541,59.561c8.988,9.652,21.909,15.245,36.381,15.755
					c19.619,0.704,40.217-7.603,56.515-22.79c29.368-27.33,35.482-68.675,13.631-92.152
					C415.47,220.339,402.555,214.74,388.082,214.225z"/>
			</g>
		</g>
		<g>
			<polygon fill="#B9C0B5" points="426.14,246.599 332.342,335.903 333.319,337.857 427.385,247.567 			"/>
		</g>
		<g>
			<polygon fill="#B9C0B5" points="433.566,279.038 371.425,217.287 370.448,218.655 432.589,280.796 			"/>
		</g>
		<g>
			<polygon fill="#B9C0B5" points="422.232,289.59 360.091,227.84 359.114,229.207 421.255,291.349 			"/>
		</g>
		<g>
			<polygon fill="#B9C0B5" points="415.393,302.9 345.363,235.07 344.262,236.572 414.292,304.832 			"/>
		</g>
		<g>
			<polygon fill="#B9C0B5" points="404.059,314.034 335.376,246.013 334.296,247.52 402.979,315.971 			"/>
		</g>
		<g>
			<polygon fill="#B9C0B5" points="393.702,323.017 324.634,254.807 323.548,256.318 392.616,324.96 			"/>
		</g>
		<g>
			<polygon fill="#B9C0B5" points="379.632,331.604 317.491,269.853 316.514,271.221 378.655,333.363 			"/>
		</g>
		<g>
			<polygon fill="#B9C0B5" points="368.884,340.658 308.667,281.187 307.72,282.505 367.938,342.352 			"/>
		</g>
	</g>
</g>
<g>
	<polygon fill="#B9C0B5" points="410.312,225.885 316.514,315.189 317.491,317.143 411.557,226.854 	"/>
</g>
<g>
	<polygon fill="#B9C0B5" points="397.085,219.828 307.915,303.586 308.844,305.418 398.269,220.736 	"/>
</g>
<polygon fill="#B9C0B5" points="419.887,235.461 326.089,324.764 327.066,326.719 421.132,236.429 "/>
<polygon fill="#B9C0B5" points="433.848,256.761 346.607,339.945 347.516,341.765 435.007,257.663 "/>
<g>
	<polygon fill="#B9C0B5" points="382.416,218.46 306.987,289.023 307.772,290.567 383.418,219.225 	"/>
</g>
<g>
	<polygon fill="#B9C0B5" points="435.569,271.612 360.139,342.175 360.925,343.719 436.57,272.377 	"/>
</g>
<g>
	<path fill="#B9C0B5" d="M310.78,535.542c6.45-5.742,7.042-15.588,1.329-22.005c-0.755-0.849-1.591-1.598-2.471-2.234
		c-0.488,1.623-1.359,5.726,0.301,10.576c0.076,0.257,1.838,6.217-1.053,10.421c-1.572,2.277-4.156,3.558-7.671,3.811l0.092-0.015
		c-0.178,0.033-4.571,0.639-7.572-2.147c-1.987-1.849-2.852-4.683-2.563-8.41l0.007-0.116l0.034-0.12
		c0.741-2.686,1.997-10.136-0.704-13.338c-0.139,0.116-0.275,0.229-0.41,0.35c-6.445,5.738-7.046,15.588-1.333,22.005
		C294.479,540.735,304.335,541.28,310.78,535.542z"/>
	<path fill="#B9C0B5" d="M293.572,525.817c-0.208,2.902,0.398,5.044,1.794,6.353c2.142,2.006,5.558,1.548,5.587,1.542l0.052-0.003
		l0.04-0.004c2.753-0.197,4.719-1.124,5.854-2.769c2.237-3.234,0.756-8.31,0.755-8.321c-2.095-6.109-0.633-11.178-0.127-12.609
		c-4.709-2.37-10.411-2.23-15.049,0.566C296.173,515.237,293.902,524.559,293.572,525.817z"/>
</g>
<g>
	<path fill="#B9C0B5" d="M77.156,371.877c7.15,4.843,16.84,2.999,21.658-4.114c0.637-0.941,1.159-1.935,1.559-2.944
		c-1.693-0.075-5.885,0.088-10.179,2.888c-0.231,0.137-5.575,3.308-10.361,1.538c-2.593-0.964-4.47-3.155-5.577-6.501l0.038,0.086
		c-0.076-0.165-1.742-4.274,0.222-7.867c1.305-2.381,3.839-3.914,7.523-4.549l0.114-0.022l0.125,0.003
		c2.786,0.059,10.316-0.553,12.756-3.957c-0.147-0.107-0.289-0.21-0.44-0.312c-7.145-4.839-16.841-3.004-21.659,4.11
		C68.12,357.35,70.012,367.038,77.156,371.877z"/>
	<path fill="#B9C0B5" d="M82.358,352.808c-2.864,0.511-4.792,1.624-5.718,3.299c-1.418,2.569-0.137,5.768-0.123,5.795l0.016,0.05
		l0.014,0.037c0.867,2.621,2.248,4.299,4.122,4.995c3.684,1.374,8.242-1.307,8.251-1.311c5.408-3.531,10.681-3.358,12.192-3.218
		c1.141-5.147-0.394-10.64-4.243-14.449C93.253,352.732,83.659,352.82,82.358,352.808z"/>
</g>
<g>
	<path fill="#B9C0B5" d="M522.55,371.877c-7.15,4.843-16.84,2.999-21.658-4.114c-0.637-0.941-1.159-1.935-1.559-2.944
		c1.693-0.075,5.885,0.088,10.179,2.888c0.231,0.137,5.575,3.308,10.361,1.538c2.593-0.964,4.47-3.155,5.577-6.501l-0.038,0.086
		c0.076-0.165,1.742-4.274-0.222-7.867c-1.305-2.381-3.839-3.914-7.523-4.549l-0.114-0.022l-0.125,0.003
		c-2.786,0.059-10.316-0.553-12.756-3.957c0.147-0.107,0.289-0.21,0.44-0.312c7.145-4.839,16.841-3.004,21.659,4.11
		C531.586,357.35,529.695,367.038,522.55,371.877z"/>
	<path fill="#B9C0B5" d="M517.348,352.808c2.864,0.511,4.792,1.624,5.718,3.299c1.418,2.569,0.137,5.768,0.123,5.795l-0.016,0.05
		l-0.014,0.037c-0.867,2.621-2.248,4.299-4.122,4.995c-3.684,1.374-8.242-1.307-8.251-1.311c-5.408-3.531-10.681-3.358-12.192-3.218
		c-1.141-5.147,0.394-10.64,4.243-14.449C506.453,352.732,516.047,352.82,517.348,352.808z"/>
</g>
<g>
	<path fill="#B9C0B5" d="M297.931,209.312c12.803,0.743,23.766-8.975,24.505-21.713c0.098-1.685,0.007-3.35-0.249-4.941
		c-2.217,1.191-7.441,4.586-10.791,11.423c-0.19,0.351-4.599,8.459-12.05,9.838c-4.042,0.741-8.101-0.627-12.058-4.054l0.113,0.081
		c-0.222-0.152-5.471-4.129-5.698-10.206c-0.145-4.029,1.923-7.913,6.14-11.523l0.129-0.115l0.162-0.091
		c3.599-2.043,12.742-8.548,13.267-14.747c-0.269-0.024-0.529-0.048-0.798-0.064c-12.795-0.743-23.77,8.971-24.51,21.709
		C275.359,197.647,285.136,208.569,297.931,209.312z"/>
	<path fill="#B9C0B5" d="M290.072,181.028c-3.266,2.829-4.88,5.715-4.788,8.557c0.144,4.356,4.211,7.463,4.248,7.487l0.058,0.051
		l0.046,0.038c3.098,2.685,6.137,3.776,9.056,3.24c5.746-1.047,9.522-7.933,9.531-7.946c4.216-8.616,11.075-12.404,13.109-13.375
		c-2.457-7.435-8.591-13.276-16.398-15.21C303.915,172.649,291.741,180.053,290.072,181.028z"/>
</g>
</svg>
