<?xml version="1.0" encoding="utf-8"?>
<!-- Generator: Adobe Illustrator 17.0.0, SVG Export Plug-In . SVG Version: 6.00 Build 0)  -->
<!DOCTYPE svg PUBLIC "-//W3C//DTD SVG 1.1//EN" "http://www.w3.org/Graphics/SVG/1.1/DTD/svg11.dtd">
<svg version="1.1" id="Layer_1" xmlns="http://www.w3.org/2000/svg" xmlns:xlink="http://www.w3.org/1999/xlink" x="0px" y="0px"
	 width="600px" height="600px" viewBox="0 0 600 600" enable-background="new 0 0 600 600" xml:space="preserve">
<circle fill="#A5554A" stroke="#B9C0B5" stroke-width="12.2071" stroke-miterlimit="10" cx="300.059" cy="299.941" r="291.212"/>
<circle fill="#576072" stroke="#B9C0B5" stroke-width="12.2506" stroke-miterlimit="10" cx="299.25" cy="299.795" r="174.416"/>
<circle fill="none" cx="298.938" cy="300.543" r="206.752"/>
<text transform="matrix(0.2444 -0.9697 0.9697 0.2444 92.4368 273.8956)"><tspan x="0" y="0" fill="#B9C0B5" font-family="'BlueHighway-Bold'" font-size="68.3107">M</tspan><tspan x="46.969" y="0.188" fill="#B9C0B5" font-family="'BlueHighway-Bold'" font-size="68.3107" rotate="11.78">A</tspan><tspan x="85.088" y="7.981" fill="#B9C0B5" font-family="'BlueHighway-Bold'" font-size="68.3107" rotate="22.423">R</tspan><tspan x="120.287" y="22.101" fill="#B9C0B5" font-family="'BlueHighway-Bold'" font-size="68.3107" rotate="33.461">C</tspan><tspan x="154.665" y="44.871" fill="#B9C0B5" font-family="'BlueHighway-Bold'" font-size="68.3107" rotate="44.108">H</tspan><tspan x="183.294" y="73.783" fill="#B9C0B5" font-family="'BlueHighway-Bold'" font-size="68.3107" rotate="52.801"> </tspan><tspan x="195.316" y="88.532" fill="#B9C0B5" font-family="'BlueHighway-Bold'" font-size="68.3107" rotate="60.413">T</tspan><tspan x="212.846" y="119.285" fill="#B9C0B5" font-family="'BlueHighway-Bold'" font-size="68.3107" rotate="69.945">E</tspan><tspan x="224.658" y="150.12" fill="#B9C0B5" font-family="'BlueHighway-Bold'" font-size="68.3107" rotate="80.155">N</tspan><tspan x="231.818" y="190.166" fill="#B9C0B5" font-family="'BlueHighway-Bold'" font-size="68.3107" rotate="91.329">N</tspan><tspan x="230.105" y="231.356" fill="#B9C0B5" font-family="'BlueHighway-Bold'" font-size="68.3107" rotate="99.211">I</tspan><tspan x="228.216" y="247.395" fill="#B9C0B5" font-family="'BlueHighway-Bold'" font-size="68.3107" rotate="106.373">S</tspan><tspan x="217.745" y="281.441" fill="#B9C0B5" font-family="'BlueHighway-Bold'" font-size="68.3107" rotate="113.968"> </tspan><tspan x="210.96" y="299.097" fill="#B9C0B5" font-family="'BlueHighway-Bold'" font-size="68.3107" rotate="122.431">C</tspan><tspan x="188.454" y="334.028" fill="#B9C0B5" font-family="'BlueHighway-Bold'" font-size="68.3107" rotate="132.56">L</tspan><tspan x="167.222" y="357.899" fill="#B9C0B5" font-family="'BlueHighway-Bold'" font-size="68.3107" rotate="142.349">U</tspan><tspan x="135.92" y="382.134" fill="#B9C0B5" font-family="'BlueHighway-Bold'" font-size="68.3107" rotate="152.958">B</tspan></text>
<ellipse transform="matrix(0.9212 0.3891 -0.3891 0.9212 141.1387 -92.6182)" fill="none" cx="299.253" cy="302.177" rx="252.22" ry="250.612"/>
<text transform="matrix(0.5783 0.8237 -0.8185 0.5746 87.9243 438.1635)" fill="#B9C0B5" font-family="'BlueHighway-Bold'" font-size="59.0388"> </text>
<text transform="matrix(0.6707 0.7504 -0.7456 0.6664 101.2927 457.2887)" fill="#B9C0B5" font-family="'BlueHighway-Bold'" font-size="59.0388">E</text>
<text transform="matrix(0.7818 0.6338 -0.6297 0.7768 128.0033 486.2106)" fill="#B9C0B5" font-family="'BlueHighway-Bold'" font-size="59.0388">S</text>
<text transform="matrix(0.8748 0.4976 -0.4945 0.8692 160.6137 511.6877)" fill="#B9C0B5" font-family="'BlueHighway-Bold'" font-size="59.0388">T</text>
<text transform="matrix(0.9333 0.3766 -0.3742 0.9274 196.4999 530.9596)" fill="#B9C0B5" font-family="'BlueHighway-Bold'" font-size="59.0388"> </text>
<text transform="matrix(0.9615 0.2972 -0.2954 0.9554 217.3084 539.1947)" fill="#B9C0B5" font-family="'BlueHighway-Bold'" font-size="59.0388"> </text>
<text transform="matrix(0.9841 0.2106 -0.2092 0.9779 238.9361 545.6609)" fill="#B9C0B5" font-family="'BlueHighway-Bold'" font-size="59.0388"> </text>
<text transform="matrix(0.9977 0.1324 -0.1315 0.9913 258.3942 549.7416)" fill="#B9C0B5" font-family="'BlueHighway-Bold'" font-size="59.0388"> </text>
<text transform="matrix(1.005 0.0531 -0.0528 0.9986 278.1295 552.2772)" fill="#B9C0B5" font-family="'BlueHighway-Bold'" font-size="59.0388"> </text>
<text transform="matrix(1.0061 -0.0264 0.0262 0.9997 297.9863 553.2452)" fill="#B9C0B5" font-family="'BlueHighway-Bold'" font-size="59.0388"> </text>
<text transform="matrix(1.0009 -0.1056 0.1049 0.9945 317.8468 552.6429)" fill="#B9C0B5" font-family="'BlueHighway-Bold'" font-size="59.0388"> </text>
<text transform="matrix(0.9895 -0.1839 0.1827 0.9832 337.5983 550.479)" fill="#B9C0B5" font-family="'BlueHighway-Bold'" font-size="59.0388"> </text>
<text transform="matrix(0.972 -0.2609 0.2592 0.9658 357.117 546.7704)" fill="#B9C0B5" font-family="'BlueHighway-Bold'" font-size="59.0388"> </text>
<text transform="matrix(0.9486 -0.3363 0.3341 0.9425 376.2879 541.541)" fill="#B9C0B5" font-family="'BlueHighway-Bold'" font-size="59.0388"> </text>
<text transform="matrix(0.9193 -0.4097 0.407 0.9134 394.99 534.8261)" fill="#B9C0B5" font-family="'BlueHighway-Bold'" font-size="59.0388"> </text>
<text transform="matrix(0.8853 -0.4787 0.4756 0.8797 413.0467 526.6747)" fill="#B9C0B5" font-family="'BlueHighway-Bold'" font-size="59.0388">1</text>
<text transform="matrix(0.8348 -0.5622 0.5586 0.8294 428.3269 518.7952)" fill="#B9C0B5" font-family="'BlueHighway-Bold'" font-size="59.0388">9</text>
<text transform="matrix(0.7558 -0.6645 0.6603 0.751 455.2158 500.5695)" fill="#B9C0B5" font-family="'BlueHighway-Bold'" font-size="59.0388">7</text>
<text transform="matrix(0.6607 -0.7592 0.7543 0.6565 479.1855 479.489)" fill="#B9C0B5" font-family="'BlueHighway-Bold'" font-size="59.0388">5</text>
<g>
	<polygon fill="#B9C0B5" points="182.789,220.997 280.794,314.306 279.773,316.348 181.488,222.008 	"/>
</g>
<g>
	<polygon fill="#B9C0B5" points="196.609,214.667 289.778,302.182 288.807,304.097 195.372,215.616 	"/>
</g>
<polygon fill="#B9C0B5" points="172.784,231.002 270.789,324.31 269.768,326.352 171.483,232.013 "/>
<polygon fill="#B9C0B5" points="158.197,253.257 249.351,340.172 248.401,342.074 156.987,254.199 "/>
<g>
	<polygon fill="#B9C0B5" points="211.936,213.238 290.748,286.966 289.927,288.579 210.89,214.037 	"/>
</g>
<g>
	<polygon fill="#B9C0B5" points="156.4,268.774 235.212,342.502 234.391,344.116 155.353,269.574 	"/>
</g>
<g>
	<g>
		<g>
			<path fill="#B9C0B5" d="M314.3,358.712c0,0-23.167-19.649-22.461-49.115c0,0,0-36.5-8.44-47.009c0,0,9.469,43.061-8.59,62.783
				c-18.07,19.685-62.986,11.592-62.986,11.592s16.844,9.834,51.938,7.01c0,0,28.072,8.422,40.699,23.167L314.3,358.712z"/>
			<path fill="#B9C0B5" d="M315.209,357.635L315.209,357.635c-0.227-0.185-22.64-19.59-21.958-48.008
				c0-1.543-0.102-37.146-8.751-47.918l-2.476,1.184c0.096,0.425,9.098,42.583-8.249,61.526
				c-17.341,18.89-61.245,11.239-61.694,11.162l-0.957,2.602c0.706,0.413,17.634,10.025,52.758,7.202l-0.52-0.06
				c0.275,0.09,27.82,8.488,40.029,22.73l0.921,1.071l1.065-0.909l9.84-8.422l1.256-1.083L315.209,357.635z M305.537,366.219
				c-12.747-14.876-40.202-23.25-41.369-23.591l-0.251-0.084l-0.263,0.024c-34.143,2.74-50.945-6.729-51.113-6.825l-0.951,2.608
				c1.86,0.341,45.885,7.997,64.272-12.029c18.34-20.026,9.319-62.25,8.925-64.045l-2.476,1.184
				c8.027,10.013,8.123,45.771,8.123,46.13c-0.712,29.758,21.988,49.372,22.951,50.191l-0.006-2.147l-9.834,8.428L305.537,366.219z"
				/>
		</g>
		<g>
			<path fill="#B9C0B5" d="M351.32,417.977c4.696,4.863,11.425,5.952,15.068,2.458l0,0c3.613-3.529,2.751-10.3-1.968-15.157
				l-35.22-36.344c-4.69-4.851-11.443-5.952-15.062-2.446l0,0c-3.631,3.511-2.728,10.288,1.962,15.145L351.32,417.977z"/>
			<path fill="#B9C0B5" d="M350.303,418.958c5.216,5.401,12.866,6.52,17.059,2.5c4.169-4.079,3.302-11.772-1.932-17.161
				l-35.214-36.338c-2.973-3.081-6.789-4.875-10.474-4.929c-2.62-0.048-4.893,0.802-6.586,2.446
				c-4.169,4.032-3.302,11.718,1.926,17.137L350.303,418.958z M317.111,380.658c-4.145-4.313-5.042-10.205-1.992-13.154
				c1.136-1.119,2.728-1.675,4.582-1.651c2.889,0.042,6.071,1.567,8.488,4.067l35.214,36.344c4.157,4.289,5.054,10.193,1.998,13.171
				c-3.063,2.943-8.931,1.854-13.064-2.435L317.111,380.658z"/>
		</g>
		<g>
			<path fill="#B9C0B5" d="M257.385,240.887c9.17,8.548,16.192,18.836,20.295,29.776c7.31,19.368,4.833,38.27-6.622,50.574
				c-7.435,7.979-17.861,12.436-30.153,12.872c-17.52,0.622-36.099-6.963-50.951-20.804c-26.128-24.321-32.265-60.36-13.674-80.339
				c7.435-7.979,17.855-12.436,30.135-12.878C223.942,219.472,242.521,227.045,257.385,240.887z M168.02,225.281
				c-22.832,24.53-16.443,67.729,14.242,96.285c17.03,15.869,38.551,24.548,59.05,23.813c15.121-0.532,28.622-6.376,38.013-16.461
				c14.445-15.51,17.777-38.773,8.924-62.232c-4.713-12.555-12.729-24.339-23.173-34.053
				c-17.036-15.869-38.563-24.548-59.062-23.819C190.894,209.352,177.4,215.202,168.02,225.281z"/>
		</g>
	</g>
	<g>
		<polygon fill="#B9C0B5" points="166.251,242.64 264.256,335.949 263.235,337.99 164.95,243.651 		"/>
	</g>
	<g>
		<polygon fill="#B9C0B5" points="158.492,276.533 223.42,212.013 224.441,213.442 159.513,278.371 		"/>
	</g>
	<g>
		<polygon fill="#B9C0B5" points="170.334,287.559 235.263,223.039 236.283,224.468 171.355,289.396 		"/>
	</g>
	<g>
		<polygon fill="#B9C0B5" points="177.48,301.466 250.65,230.593 251.801,232.163 178.631,303.484 		"/>
	</g>
	<g>
		<polygon fill="#B9C0B5" points="189.323,313.098 261.086,242.027 262.214,243.601 190.451,315.122 		"/>
	</g>
	<g>
		<polygon fill="#B9C0B5" points="200.144,322.485 272.309,251.215 273.444,252.794 201.279,324.515 		"/>
	</g>
	<g>
		<polygon fill="#B9C0B5" points="214.845,331.457 279.773,266.937 280.794,268.366 215.866,333.294 		"/>
	</g>
	<g>
		<polygon fill="#B9C0B5" points="226.075,340.917 288.993,278.779 289.982,280.155 227.064,342.686 		"/>
	</g>
</g>
<g>
	<polygon fill="#B9C0B5" points="182.789,220.997 280.794,314.306 279.773,316.348 181.488,222.008 	"/>
</g>
<g>
	<polygon fill="#B9C0B5" points="196.609,214.667 289.778,302.182 288.807,304.097 195.372,215.616 	"/>
</g>
<polygon fill="#B9C0B5" points="172.784,231.002 270.789,324.31 269.768,326.352 171.483,232.013 "/>
<polygon fill="#B9C0B5" points="158.197,253.257 249.351,340.172 248.401,342.074 156.987,254.199 "/>
<g>
	<polygon fill="#B9C0B5" points="211.936,213.238 290.748,286.966 289.927,288.579 210.89,214.037 	"/>
</g>
<g>
	<polygon fill="#B9C0B5" points="156.4,268.774 235.212,342.502 234.391,344.116 155.353,269.574 	"/>
</g>
<g>
	<g>
		<g>
			<g>
				<path fill="#B9C0B5" d="M283.223,358.712c0,0,23.167-19.649,22.461-49.115c0,0,0-36.5,8.44-47.009c0,0-9.469,43.061,8.59,62.783
					c18.07,19.685,62.986,11.592,62.986,11.592s-16.844,9.834-51.938,7.01c0,0-28.072,8.422-40.699,23.167L283.223,358.712z"/>
				<path fill="#B9C0B5" d="M281.052,358.712l1.256,1.083l9.84,8.422l1.065,0.909l0.921-1.071
					c12.208-14.242,39.754-22.64,40.029-22.73l-0.52,0.06c35.124,2.823,52.052-6.789,52.757-7.202l-0.957-2.602
					c-0.449,0.078-44.353,7.728-61.694-11.162c-17.347-18.944-8.344-61.102-8.249-61.526l-2.476-1.184
					c-8.649,10.773-8.751,46.375-8.751,47.918c0.682,28.418-21.731,47.823-21.958,48.008l0,0L281.052,358.712z M293.978,366.063
					l-9.834-8.428l-0.006,2.147c0.963-0.819,23.663-20.433,22.951-50.191c0-0.359,0.096-36.117,8.123-46.13l-2.476-1.184
					c-0.395,1.794-9.415,44.018,8.924,64.045c18.387,20.026,62.412,12.37,64.272,12.029l-0.951-2.608
					c-0.168,0.096-16.97,9.565-51.113,6.825l-0.263-0.024l-0.251,0.084c-1.166,0.341-28.622,8.715-41.369,23.591L293.978,366.063z"
					/>
			</g>
			<g>
				<path fill="#B9C0B5" d="M246.203,417.977c-4.696,4.863-11.425,5.952-15.068,2.458l0,0c-3.613-3.529-2.752-10.3,1.968-15.157
					l35.22-36.344c4.69-4.851,11.443-5.952,15.062-2.446l0,0c3.631,3.511,2.728,10.288-1.962,15.145L246.203,417.977z"/>
				<path fill="#B9C0B5" d="M282.44,382.614c5.228-5.419,6.095-13.106,1.926-17.137c-1.693-1.645-3.966-2.494-6.586-2.446
					c-3.685,0.054-7.501,1.848-10.474,4.929l-35.214,36.338c-5.234,5.389-6.101,13.082-1.932,17.161
					c4.193,4.02,11.844,2.901,17.059-2.5L282.44,382.614z M245.186,417.002c-4.133,4.289-10.001,5.377-13.064,2.435
					c-3.057-2.979-2.159-8.883,1.998-13.171l35.214-36.344c2.417-2.5,5.599-4.026,8.488-4.067c1.854-0.024,3.445,0.532,4.582,1.651
					c3.051,2.949,2.153,8.841-1.992,13.154L245.186,417.002z"/>
			</g>
			<g>
				<path fill="#B9C0B5" d="M391.107,220.089c12.28,0.443,22.7,4.899,30.135,12.878c18.591,19.978,12.454,56.017-13.674,80.339
					c-14.852,13.841-33.431,21.426-50.951,20.804c-12.292-0.437-22.718-4.893-30.153-12.872
					c-11.455-12.304-13.931-31.206-6.622-50.574c4.103-10.94,11.126-21.229,20.295-29.776
					C355.002,227.045,373.581,219.472,391.107,220.089z M391.508,208.813c-20.499-0.73-42.027,7.95-59.062,23.819
					c-10.444,9.714-18.459,21.498-23.173,34.053c-8.853,23.46-5.521,46.722,8.925,62.232c9.391,10.085,22.891,15.929,38.013,16.461
					c20.499,0.736,42.021-7.944,59.05-23.813c30.685-28.556,37.074-71.755,14.242-96.285
					C420.124,215.202,406.629,209.352,391.508,208.813z"/>
			</g>
		</g>
		<g>
			<polygon fill="#B9C0B5" points="431.272,242.64 333.268,335.949 334.288,337.99 432.573,243.651 			"/>
		</g>
		<g>
			<polygon fill="#B9C0B5" points="439.031,276.533 374.103,212.013 373.082,213.442 438.01,278.371 			"/>
		</g>
		<g>
			<polygon fill="#B9C0B5" points="427.189,287.559 362.261,223.039 361.24,224.468 426.168,289.396 			"/>
		</g>
		<g>
			<polygon fill="#B9C0B5" points="420.043,301.466 346.873,230.593 345.722,232.163 418.892,303.484 			"/>
		</g>
		<g>
			<polygon fill="#B9C0B5" points="408.201,313.098 336.438,242.027 335.309,243.601 407.072,315.122 			"/>
		</g>
		<g>
			<polygon fill="#B9C0B5" points="397.379,322.485 325.214,251.215 324.08,252.794 396.244,324.515 			"/>
		</g>
		<g>
			<polygon fill="#B9C0B5" points="382.678,331.457 317.75,266.937 316.729,268.366 381.657,333.294 			"/>
		</g>
		<g>
			<polygon fill="#B9C0B5" points="371.449,340.917 308.53,278.779 307.541,280.155 370.459,342.686 			"/>
		</g>
	</g>
</g>
<g>
	<polygon fill="#B9C0B5" points="414.734,220.997 316.729,314.306 317.75,316.348 416.035,222.008 	"/>
</g>
<g>
	<polygon fill="#B9C0B5" points="400.914,214.667 307.745,302.182 308.716,304.097 402.151,215.616 	"/>
</g>
<polygon fill="#B9C0B5" points="424.739,231.002 326.734,324.31 327.755,326.352 426.04,232.013 "/>
<polygon fill="#B9C0B5" points="439.326,253.257 348.172,340.172 349.122,342.074 440.536,254.199 "/>
<g>
	<polygon fill="#B9C0B5" points="385.587,213.238 306.775,286.966 307.596,288.579 386.634,214.037 	"/>
</g>
<g>
	<polygon fill="#B9C0B5" points="441.124,268.774 362.311,342.502 363.132,344.116 442.17,269.574 	"/>
</g>
<g>
	<path fill="#B9C0B5" d="M310.738,544.541c6.739-6,7.358-16.287,1.389-22.992c-0.789-0.887-1.663-1.67-2.582-2.334
		c-0.51,1.695-1.42,5.983,0.314,11.051c0.08,0.269,1.92,6.496-1.1,10.888c-1.642,2.38-4.342,3.718-8.015,3.982l0.096-0.016
		c-0.186,0.035-4.776,0.668-7.912-2.243c-2.077-1.932-2.98-4.893-2.678-8.787l0.007-0.121l0.035-0.126
		c0.774-2.807,2.086-10.591-0.736-13.936c-0.146,0.122-0.287,0.239-0.429,0.365c-6.734,5.995-7.362,16.287-1.393,22.992
		C293.707,549.967,304.004,550.536,310.738,544.541z"/>
	<path fill="#B9C0B5" d="M292.759,534.38c-0.217,3.032,0.416,5.271,1.875,6.638c2.238,2.095,5.807,1.618,5.838,1.611l0.054-0.003
		l0.041-0.004c2.877-0.206,4.931-1.174,6.117-2.893c2.337-3.379,0.79-8.683,0.789-8.694c-2.189-6.383-0.661-11.68-0.132-13.175
		c-4.921-2.477-10.878-2.33-15.724,0.591C295.476,523.326,293.104,533.065,292.759,534.38z"/>
</g>
<g>
	<path fill="#B9C0B5" d="M66.637,373.536c7.47,5.06,17.595,3.134,22.629-4.298c0.666-0.983,1.21-2.022,1.629-3.076
		c-1.769-0.078-6.149,0.092-10.635,3.018c-0.241,0.143-5.825,3.456-10.825,1.607c-2.71-1.008-4.67-3.296-5.827-6.792l0.039,0.089
		c-0.079-0.172-1.82-4.466,0.232-8.22c1.363-2.487,4.012-4.09,7.861-4.753l0.119-0.023l0.131,0.004
		c2.911,0.061,10.779-0.578,13.329-4.135c-0.154-0.111-0.302-0.219-0.459-0.326c-7.465-5.056-17.596-3.138-22.63,4.294
		C57.196,358.358,59.172,368.48,66.637,373.536z"/>
	<path fill="#B9C0B5" d="M72.072,353.612c-2.993,0.534-5.007,1.697-5.975,3.447c-1.482,2.684-0.143,6.026-0.128,6.055l0.017,0.052
		L66,363.205c0.906,2.738,2.349,4.492,4.306,5.219c3.85,1.436,8.611-1.366,8.622-1.37c5.651-3.689,11.16-3.508,12.739-3.363
		c1.193-5.378-0.411-11.117-4.433-15.098C83.456,353.533,73.432,353.624,72.072,353.612z"/>
</g>
<g>
	<path fill="#B9C0B5" d="M532.006,373.536c-7.47,5.06-17.595,3.134-22.629-4.298c-0.666-0.983-1.21-2.022-1.629-3.076
		c1.769-0.078,6.149,0.092,10.635,3.018c0.241,0.143,5.825,3.456,10.825,1.607c2.71-1.008,4.67-3.296,5.828-6.792l-0.039,0.089
		c0.079-0.172,1.82-4.466-0.232-8.22c-1.363-2.487-4.012-4.09-7.861-4.753l-0.119-0.023l-0.131,0.004
		c-2.911,0.061-10.779-0.578-13.329-4.135c0.154-0.111,0.302-0.219,0.459-0.326c7.465-5.056,17.596-3.138,22.63,4.294
		C541.447,358.358,539.471,368.48,532.006,373.536z"/>
	<path fill="#B9C0B5" d="M526.571,353.612c2.993,0.534,5.007,1.697,5.975,3.447c1.482,2.684,0.143,6.026,0.128,6.055l-0.017,0.052
		l-0.014,0.039c-0.906,2.738-2.349,4.492-4.307,5.219c-3.85,1.436-8.611-1.366-8.621-1.37c-5.651-3.689-11.16-3.508-12.739-3.363
		c-1.193-5.378,0.411-11.117,4.433-15.098C515.187,353.533,525.211,353.624,526.571,353.612z"/>
</g>
<g>
	<path fill="#B9C0B5" d="M297.313,203.68c13.378,0.777,24.832-9.378,25.605-22.687c0.102-1.76,0.007-3.5-0.26-5.163
		c-2.316,1.245-7.775,4.792-11.275,11.935c-0.199,0.366-4.805,8.838-12.59,10.279c-4.223,0.774-8.464-0.655-12.599-4.236
		l0.118,0.084c-0.232-0.159-5.717-4.315-5.953-10.664c-0.152-4.21,2.009-8.267,6.416-12.04l0.134-0.12l0.169-0.095
		c3.761-2.135,13.313-8.931,13.862-15.408c-0.281-0.025-0.552-0.05-0.834-0.067c-13.369-0.776-24.836,9.373-25.609,22.682
		C273.729,191.492,283.945,202.904,297.313,203.68z"/>
	<path fill="#B9C0B5" d="M289.102,174.128c-3.412,2.956-5.099,5.972-5.002,8.94c0.15,4.551,4.399,7.797,4.439,7.822l0.061,0.054
		l0.048,0.039c3.237,2.805,6.412,3.945,9.462,3.385c6.003-1.094,9.949-8.289,9.958-8.302c4.405-9.002,11.572-12.96,13.697-13.975
		c-2.567-7.768-8.976-13.871-17.134-15.892C303.565,165.372,290.845,173.109,289.102,174.128z"/>
</g>
</svg>
